<svg xmlns="http://www.w3.org/2000/svg" width="16" height="16" viewBox="0 0 16 16"><path fill="currentColor" d="M8 0a8 8 0 1 0 0 16A8 8 0 0 0 8 0ZM1 8a7 7 0 0 1 13.96-.684l-1.2.68A6 6 0 0 0 2.04 8.684L1 8Zm13.96.684A7 7 0 0 1 1.04 7.316l1.2-.68A6 6 0 0 0 13.76 7.32l1.2.684ZM8 14.5A6.5 6.5 0 0 1 1.5 8c0-.173.007-.344.02-.513l1.46.825A5.5 5.5 0 0 0 8 13.5a5.48 5.48 0 0 0 4.02-1.738l1.46.825c-.013.17-.02.34-.02.513A6.5 6.5 0 0 1 8 14.5Zm0-13A6.5 6.5 0 0 1 14.5 8c0 .173-.007.344-.02.513l-1.46-.825A5.5 5.5 0 0 0 8 2.5a5.48 5.48 0 0 0-4.02 1.738l-1.46-.825C2.533 3.243 2.54 3.07 2.54 2.897A6.5 6.5 0 0 1 8 1.5Z"/></svg>
